<svg width="50" height="50" viewBox="0 0 50 50" fill="none" xmlns="http://www.w3.org/2000/svg">
<circle cx="25" cy="25" r="25" fill="white"/>
<rect x="10.6188" y="14.0874" width="21.6562" height="13.8188" fill="#197AFF"/>
<path fill-rule="evenodd" clip-rule="evenodd" d="M15.5 9.55V10.1H16.05H16.6V9.55V9H16.05H15.5V9.55ZM17.7 9.55V10.1H21H24.3V9.55V9H21H17.7V9.55ZM19.9 11.75V12.3H23.2H26.5V11.75V11.2H23.2H19.9V11.75ZM10.1688 13.5688L10 13.7375V23.3V32.8625L10.1688 33.0312C10.3319 33.1944 10.3695 33.2 11.3032 33.2C12.0734 33.2 12.2687 33.219 12.2687 33.2939C12.2687 33.5141 12.7721 34.3716 13.0539 34.6313C13.3892 34.9405 13.9191 35.2323 14.3138 35.3253C14.4819 35.365 13.7749 35.3886 12.2859 35.3931L10 35.4V35.95V36.5H26.5H43V35.95V35.4L40.7141 35.3954C38.77 35.3914 38.4744 35.378 38.7375 35.3055C39.5371 35.0854 40.1207 34.6083 40.4878 33.8744C40.6217 33.6068 40.7313 33.3455 40.7313 33.2939C40.7313 33.219 40.9266 33.2 41.6968 33.2C42.6305 33.2 42.6681 33.1944 42.8312 33.0312L43 32.8625V29.658C43 27.6598 42.9742 26.4052 42.9315 26.3254C42.8938 26.2549 42.2753 25.8625 41.5571 25.4534L40.2514 24.7094L40.2507 22.5174C40.2502 20.9991 40.2243 20.2384 40.1664 20.0423C40.0548 19.6647 39.4853 19.0952 39.1077 18.9836C38.9053 18.9239 38.0087 18.9 35.9623 18.9H33.1V16.3188V13.7375L32.9312 13.5688L32.7625 13.4H21.55H10.3375L10.1688 13.5688ZM32 21.1V27.7H21.55H11.1V21.1V14.5H21.55H32V21.1ZM12.9188 19.0688L12.75 19.2375V21.8188V24.4H13.3H13.85V23.3V22.2H14.675H15.5V21.65V21.1H14.675H13.85V20.55V20H14.95H16.05V19.45V18.9H14.5688C13.0877 18.9 13.0875 18.9 12.9188 19.0688ZM17.3188 19.0688L17.15 19.2375V21.8188V24.4H17.7H18.25V23.3V22.2H18.9062C19.5114 22.2 19.5756 22.2131 19.7312 22.3688C19.8938 22.5313 19.9 22.5717 19.9 23.4688V24.4H20.45H21V23.4477C21 22.4753 20.9466 22.179 20.7098 21.8391C20.5801 21.6528 20.5801 21.6472 20.7098 21.4609C21.1704 20.7996 21.0844 20.011 20.4867 19.4133C20.0304 18.957 19.8132 18.9 18.5311 18.9C17.5147 18.9 17.4831 18.9044 17.3188 19.0688ZM22.2688 19.0688L22.1 19.2375V21.65V24.0625L22.2688 24.2312C22.4375 24.4 22.4377 24.4 23.9188 24.4H25.4V23.85V23.3H24.3H23.2V22.75V22.2H24.025H24.85V21.65V21.1H24.025H23.2V20.55V20H24.3H25.4V19.45V18.9H23.9188C22.4377 18.9 22.4375 18.9 22.2688 19.0688ZM26.6688 19.0688L26.5 19.2375V21.65V24.0625L26.6688 24.2312C26.8375 24.4 26.8377 24.4 28.3188 24.4H29.8V23.85V23.3H28.7H27.6V22.75V22.2H28.425H29.25V21.65V21.1H28.425H27.6V20.55V20H28.7H29.8V19.45V18.9H28.3188C26.8377 18.9 26.8375 18.9 26.6688 19.0688ZM19.7312 20.1688C19.8376 20.2751 19.9 20.4161 19.9 20.55C19.9 20.6839 19.8376 20.8249 19.7312 20.9312C19.5756 21.0869 19.5114 21.1 18.9062 21.1H18.25V20.55V20H18.9062C19.5114 20 19.5756 20.0131 19.7312 20.1688ZM35.85 22.5812V25.1625L36.0188 25.3312L36.1875 25.5H37.8052H39.4228L40.6597 26.2047C42.24 27.105 42.2547 27.15 40.9688 27.15C40.0717 27.15 40.0313 27.1562 39.8688 27.3188C39.7014 27.4861 39.7 27.4981 39.7 28.8C39.7 30.1019 39.7014 30.1139 39.8688 30.2812C40.0313 30.4438 40.0717 30.45 40.9688 30.45H41.9V31.275V32.1H41.3156C40.8676 32.1 40.7313 32.0781 40.7313 32.0061C40.7313 31.9545 40.6226 31.6951 40.4899 31.4298C40.1966 30.8437 39.7841 30.4465 39.1624 30.152C38.7471 29.9552 38.6406 29.9344 38.05 29.9344C37.4594 29.9344 37.3529 29.9552 36.9376 30.152C36.3159 30.4465 35.9034 30.8437 35.6101 31.4298C35.4774 31.6951 35.3687 31.9545 35.3687 32.0061C35.3687 32.0816 35.1473 32.1 34.2344 32.1H33.1V26.05V20H34.475H35.85V22.5812ZM38.9812 20.1688L39.15 20.3375V22.3688V24.4H38.05H36.95V22.2V20H37.8812C38.7783 20 38.8187 20.0062 38.9812 20.1688ZM36.4 27.15V27.7H37.5H38.6V27.15V26.6H37.5H36.4V27.15ZM41.9 28.8V29.35H41.35H40.8V28.8V28.25H41.35H41.9V28.8ZM32 30.45V32.1H27.2906C23.3563 32.1 22.5813 32.0845 22.5813 32.0061C22.5813 31.9545 22.4726 31.6951 22.3399 31.4298C22.0467 30.8437 21.6341 30.4465 21.0124 30.152C20.5965 29.9549 20.4911 29.9344 19.8964 29.9344C19.2755 29.9344 19.2112 29.9485 18.715 30.1937C18.2002 30.4481 17.7133 30.8903 17.5433 31.2578C17.5039 31.3429 17.4506 31.4125 17.425 31.4125C17.3994 31.4125 17.3461 31.3429 17.3068 31.2578C17.1367 30.8903 16.6498 30.4481 16.135 30.1937C15.6388 29.9485 15.5745 29.9344 14.9536 29.9344C14.3589 29.9344 14.2535 29.9549 13.8376 30.152C13.2159 30.4465 12.8033 30.8437 12.5101 31.4298C12.3774 31.6951 12.2687 31.9545 12.2687 32.0061C12.2687 32.0781 12.1324 32.1 11.6844 32.1H11.1V30.45V28.8H21.55H32V30.45ZM15.4577 31.0836C16.0485 31.2582 16.6 32.0144 16.6 32.65C16.6 33.5019 15.8019 34.3 14.95 34.3C14.5176 34.3 14.1693 34.1428 13.8133 33.7867C13.1177 33.0912 13.1177 32.2096 13.8133 31.5125C14.2956 31.0292 14.815 30.8937 15.4577 31.0836ZM20.4076 31.0836C20.7853 31.1952 21.3548 31.7647 21.4664 32.1424C21.6568 32.787 21.5226 33.3009 21.0367 33.7867C20.6807 34.1428 20.3324 34.3 19.9 34.3C19.0481 34.3 18.25 33.5019 18.25 32.65C18.25 32.2179 18.4073 31.8693 18.7633 31.5125C19.2456 31.0292 19.765 30.8937 20.4076 31.0836ZM38.5577 31.0836C39.1485 31.2582 39.7 32.0144 39.7 32.65C39.7 33.5019 38.9019 34.3 38.05 34.3C37.6176 34.3 37.2693 34.1428 36.9133 33.7867C36.2177 33.0912 36.2177 32.2096 36.9133 31.5125C37.3956 31.0292 37.915 30.8937 38.5577 31.0836ZM14.4 32.65V33.2H14.95H15.5V32.65V32.1H14.95H14.4V32.65ZM19.35 32.65V33.2H19.9H20.45V32.65V32.1H19.9H19.35V32.65ZM37.5 32.65V33.2H38.05H38.6V32.65V32.1H38.05H37.5V32.65ZM35.3687 33.2939C35.3687 33.5141 35.8721 34.3716 36.1539 34.6313C36.4892 34.9405 37.0191 35.2323 37.4138 35.3253C37.5679 35.3616 34.1665 35.3862 28.975 35.3862C23.7836 35.3862 20.3821 35.3616 20.5362 35.3253C20.9309 35.2323 21.4608 34.9405 21.7961 34.6313C22.0779 34.3716 22.5813 33.5141 22.5813 33.2939C22.5813 33.2152 23.6171 33.2 28.975 33.2C34.3329 33.2 35.3687 33.2152 35.3687 33.2939ZM17.5433 34.0422C17.7764 34.5461 18.614 35.1731 19.255 35.3236C19.4346 35.3657 18.8364 35.3862 17.425 35.3862C16.0605 35.3862 15.4183 35.3649 15.5862 35.3253C16.0332 35.22 16.5465 34.9153 16.918 34.5348C17.1153 34.3328 17.2966 34.1045 17.3211 34.0275C17.3789 33.8452 17.4544 33.8502 17.5433 34.0422Z" fill="#11346F"/>
<path fill-rule="evenodd" clip-rule="evenodd" d="M12.75 19.2374L12.9188 19.0687C13.0875 18.8999 13.0877 18.8999 14.5688 18.8999H16.05V19.4499V19.9999H14.95H13.85V20.5499V21.0999H14.675H15.5V21.6499V22.1999H14.675H13.85V23.2999V24.3999H13.3H12.75V21.8187V19.2374ZM17.15 19.2374L17.3188 19.0687C17.4831 18.9043 17.5147 18.8999 18.5311 18.8999C19.8132 18.8999 20.0304 18.9569 20.4867 19.4132C21.0844 20.0109 21.1704 20.7995 20.7098 21.4608C20.5801 21.6471 20.5801 21.6527 20.7098 21.839C20.9466 22.1789 21 22.4752 21 23.4476V24.3999H20.45H19.9V23.4687C19.9 22.5716 19.8938 22.5312 19.7312 22.3687C19.5756 22.213 19.5114 22.1999 18.9062 22.1999H18.25V23.2999V24.3999H17.7H17.15V21.8187V19.2374ZM22.1 19.2374L22.2688 19.0687C22.4375 18.8999 22.4377 18.8999 23.9188 18.8999H25.4V19.4499V19.9999H24.3H23.2V20.5499V21.0999H24.025H24.85V21.6499V22.1999H24.025H23.2V22.7499V23.2999H24.3H25.4V23.8499V24.3999H23.9188H23.9188C22.4377 24.3999 22.4375 24.3999 22.2688 24.2311L22.1 24.0624V21.6499V19.2374ZM26.5 19.2374L26.6688 19.0687C26.8375 18.8999 26.8377 18.8999 28.3188 18.8999H29.8V19.4499V19.9999H28.7H27.6V20.5499V21.0999H28.425H29.25V21.6499V22.1999H28.425H27.6V22.7499V23.2999H28.7H29.8V23.8499V24.3999H28.3188H28.3188C26.8377 24.3999 26.8375 24.3999 26.6688 24.2311L26.5 24.0624V21.6499V19.2374ZM19.9 20.5499C19.9 20.416 19.8376 20.275 19.7312 20.1687C19.5756 20.013 19.5114 19.9999 18.9062 19.9999H18.25V20.5499V21.0999H18.9062C19.5114 21.0999 19.5756 21.0868 19.7312 20.9311C19.8376 20.8248 19.9 20.6838 19.9 20.5499Z" fill="white"/>
</svg>
