<svg width="50" height="50" viewBox="0 0 50 50" fill="none" xmlns="http://www.w3.org/2000/svg">
<circle cx="25" cy="25" r="25" fill="white"/>
<path d="M16.3816 36.0527L17.25 37.3554L24.6316 33.4475L33.3158 37.3554L34.1842 36.9212V35.1843L33.3158 27.8027L38.9605 21.7238V19.9869L29.8421 18.2501L26.0952 11.3027H24.6316L20.2895 18.6843L12.0395 20.4212V21.7238L17.6842 27.8027L16.3816 36.0527Z" fill="#197AFF" stroke="black"/>
<path fill-rule="evenodd" clip-rule="evenodd" d="M24.8468 10.0781C24.4387 10.2305 24.0374 10.4975 23.8384 10.7491C23.7328 10.8827 22.8767 12.5509 21.9359 14.4564C20.5068 17.3509 20.2004 17.9271 20.0735 17.9576C19.9901 17.9776 18.2496 18.237 16.2057 18.5338C13.5486 18.9198 12.4057 19.1108 12.1948 19.204C11.7991 19.3791 11.3363 19.8168 11.1265 20.2143C10.9739 20.5036 10.9549 20.6106 10.9549 21.1846C10.9549 21.76 10.9737 21.8652 11.1281 22.1579C11.2578 22.4038 11.9865 23.1558 14.031 25.1539C15.5324 26.621 16.7995 27.8814 16.8468 27.9547C16.9212 28.0699 16.8452 28.5985 16.2823 31.8814C15.9245 33.9679 15.6318 35.7573 15.6318 35.8579C15.6318 36.4755 16.103 37.2806 16.6761 37.6425C17.0399 37.8721 17.6452 38.0108 18.0582 37.9592C18.4793 37.9067 18.7656 37.7674 22.4377 35.8293C24.0344 34.9866 25.4133 34.2969 25.502 34.2964C25.5907 34.2961 26.9986 35.0005 28.6307 35.8619C32.7052 38.0121 32.5834 37.9561 33.1777 37.9537C33.5708 37.952 33.7393 37.9167 34.0684 37.7671C34.8916 37.3928 35.4475 36.4747 35.3499 35.6509C35.3287 35.4715 35.0324 33.6964 34.6915 31.706C34.1559 28.5796 34.0832 28.0693 34.1574 27.9548C34.2045 27.882 35.4624 26.6319 36.9526 25.1769C40.1187 22.0855 40.0491 22.1752 40.0491 21.1846C40.0491 20.6095 40.0304 20.5044 39.8771 20.2169C39.6523 19.7951 39.2257 19.3873 38.8234 19.2099C38.5778 19.1015 37.6168 18.9394 34.7915 18.5299C32.7514 18.2342 31.0142 17.9763 30.9311 17.9568C30.8048 17.9272 30.4936 17.3421 29.0428 14.4069C27.1676 10.6133 27.1316 10.555 26.4557 10.2089C26.0443 9.99837 25.2363 9.93263 24.8468 10.0781ZM15.3931 11.1506C15.1343 11.3083 14.9867 11.5875 14.9867 11.9191C14.9867 12.1186 15.0545 12.2748 15.2932 12.6252C16.1184 13.8367 16.4355 14.1134 16.8983 14.0265C17.3507 13.9417 17.691 13.4489 17.6046 13.0037C17.5521 12.7328 16.5144 11.3071 16.2544 11.1486C15.9941 10.9898 15.6554 10.9906 15.3931 11.1506ZM34.8094 11.1196C34.6661 11.1819 34.4209 11.455 34.02 11.9988C33.2691 13.0176 33.2063 13.3225 33.6548 13.771C34.12 14.2362 34.6138 14.108 35.1652 13.3788C35.862 12.4574 36.0172 12.1886 36.017 11.9038C36.0166 11.5593 35.818 11.2357 35.534 11.117C35.2593 11.0022 35.0779 11.0029 34.8094 11.1196ZM25.7767 11.8467C25.8754 11.9568 27.1377 14.4593 28.5345 17.3139C28.9251 18.1123 29.332 18.8519 29.4647 19.0046C29.6001 19.1605 29.8711 19.3595 30.1011 19.472C30.4722 19.6534 30.7807 19.7083 34.3068 20.2203C37.1039 20.6265 38.1423 20.8002 38.2259 20.8758C38.2902 20.9341 38.3396 21.0701 38.3396 21.189C38.3396 21.3812 38.1017 21.6304 35.5635 24.0981C33.1511 26.4434 32.7624 26.8477 32.5969 27.1841C32.2602 27.8685 32.2611 27.8807 32.9841 32.0762C33.5957 35.6255 33.6315 35.8816 33.5366 36.0264C33.3183 36.3596 33.3348 36.3664 29.6863 34.4494C26.873 32.9711 26.176 32.6301 25.8729 32.5832C25.1117 32.4653 25.0528 32.4895 21.3201 34.4501C17.6688 36.368 17.6864 36.3608 17.4674 36.0266C17.3727 35.882 17.4088 35.6241 18.0202 32.0764C18.7431 27.8811 18.744 27.8698 18.4075 27.1841C18.2421 26.8473 17.8566 26.4461 15.4409 24.0977C12.9043 21.6316 12.6644 21.3803 12.6644 21.1886C12.6644 21.0703 12.7136 20.9347 12.7772 20.8777C12.8914 20.7755 13.0034 20.7575 18.2768 19.9915C20.7767 19.6285 21.0758 19.5379 21.5392 19.0046C21.6719 18.8519 22.0788 18.1123 22.4695 17.3139C23.8662 14.4593 25.1285 11.9568 25.2272 11.8467C25.2829 11.7846 25.4065 11.7338 25.502 11.7338C25.5975 11.7338 25.7211 11.7846 25.7767 11.8467ZM10.2301 29.2374C9.65029 29.435 9.3874 29.56 9.23929 29.7082C8.8481 30.0998 8.95093 30.7698 9.44282 31.0336C9.75499 31.201 9.88194 31.1862 10.8939 30.8636C12.0294 30.5017 12.1805 30.3753 12.1805 29.7875C12.1805 29.4221 12.1667 29.3871 11.9396 29.1789C11.7266 28.9837 11.6592 28.9587 11.359 28.9632C11.1406 28.9664 10.7375 29.0644 10.2301 29.2374ZM39.0644 29.1789C38.8373 29.3871 38.8234 29.4221 38.8234 29.7875C38.8234 30.373 38.9747 30.5003 40.1015 30.8632C41.1021 31.1854 41.2467 31.2023 41.5611 31.0336C41.8683 30.8689 42.0323 30.5484 41.9947 30.186C41.9482 29.7368 41.6872 29.5417 40.7042 29.2219C39.6702 28.8855 39.3925 28.8783 39.0644 29.1789ZM25.07 39.3377C24.6648 39.5923 24.6311 39.7093 24.6311 40.8603C24.6311 42.0121 24.666 42.1328 25.07 42.3792C25.4591 42.6164 25.9897 42.4829 26.2526 42.0817C26.3818 41.8846 26.4538 40.7115 26.3753 40.0834C26.3107 39.5667 26.0415 39.2743 25.5947 39.2357C25.3529 39.2147 25.2265 39.2393 25.07 39.3377Z" fill="#11346F"/>
</svg>
