<svg width="70" height="42" viewBox="0 0 70 42" fill="none" xmlns="http://www.w3.org/2000/svg">
<path fill-rule="evenodd" clip-rule="evenodd" d="M69.5871 41.4003C69.2864 41.5229 68.9432 41.3786 68.8205 41.078C67.8673 38.7416 67.0315 36.401 66.2121 34.1062C65.6246 32.4609 65.0455 30.8391 64.4375 29.2593C62.9656 25.4347 61.2822 21.7292 58.7852 18.1262C54.3153 11.6767 48.4773 6.18872 41.1797 3.21374C37.4155 1.67922 32.8345 0.932554 28.5644 1.47688C24.2989 2.02062 20.3901 3.84347 17.8699 7.40169C16.5917 9.20654 15.6766 11.3638 15.1284 13.68C17.1621 12.7303 19.3858 12.0651 21.8197 11.761C27.5854 11.0407 31.4377 15.1187 32.8661 19.9852C34.2889 24.8326 33.4047 30.7441 29.4517 33.9865C27.3254 35.7305 24.9808 36.2541 22.7653 35.7617C20.5666 35.273 18.5608 33.7997 17.0422 31.6722C14.598 28.2482 13.3693 23.7105 13.34 19.2025C13.3328 18.0863 13.3991 16.968 13.5398 15.865C8.31886 19.0362 4.49258 24.2825 1.60901 29.9588C1.46194 30.2484 1.10802 30.3638 0.818496 30.2168C0.528982 30.0697 0.413505 29.7158 0.560583 29.4262C3.63427 23.3756 7.84876 17.6347 13.779 14.3662C14.3183 11.5634 15.3568 8.91549 16.9103 6.72202C19.67 2.82559 23.9191 0.883563 28.4157 0.310371C32.9075 -0.262224 37.6923 0.522147 41.6236 2.1248C49.1891 5.20899 55.1919 10.8771 59.7517 17.4563C62.3241 21.168 64.0469 24.9702 65.535 28.837C66.1688 30.4839 66.7527 32.1207 67.3395 33.7657C68.1452 36.0241 68.9562 38.2977 69.9093 40.6337C70.032 40.9344 69.8877 41.2776 69.5871 41.4003ZM14.8352 15.1366C14.6137 16.4635 14.5071 17.8276 14.516 19.1949C14.544 23.5139 15.7241 27.8017 17.9993 30.989C19.3893 32.9362 21.1656 34.2015 23.0204 34.6137C24.8582 35.0222 26.8383 34.6091 28.7059 33.0772C32.1772 30.2299 33.0761 24.8761 31.7377 20.3164C30.405 15.7758 26.9521 12.3049 21.9655 12.9279C19.3485 13.2549 16.9809 14.0246 14.8352 15.1366Z" fill="#197AFF"/>
</svg>
